# xmcd
#
# Track frame offsets:
#	150
#	9806
#	23103
#	32461
#	41609
#	57848
#	71510
#	81952
#	94726
#	109288
#	120244
#	134313
#	148145
#	159659
#	172706
#	197039
#	210415
#	218724
#	231768
#	245130
#
# Disc length: 3466 seconds
#
# Revision: 0
# Processed by: cddbd v1.5.2PL0 Copyright (c) Steve Scherf et al.
# Submitted via: dBpowerAMP V4.0
#
DISCID=080d8814
DTITLE=Blues Brothers - Tribute to the Music of The BB
DYEAR=2003
DGENRE=Blues
TTITLE0=Peter Gunn Theme - King Curtis
TTITLE1=Soul Man - Sam and Dave
TTITLE2=Think - BB Band
TTITLE3=Rawhide - Frankie Laine
TTITLE4=Minnie the Moocher - Cab Calloway
TTITLE5=Sweet Home Chicago - Robert Johnson
TTITLE6=Jailhouse Rock - Carl Perkins
TTITLE7=Green Onions - BB Band
TTITLE8=Do You Love Me - The Contours
TTITLE9=Let There Be Drums - Sandy Nelson
TTITLE10=Riders in the Sky - Burl Ives
TTITLE11=How Blue Can You Get? [aka Downhearted] - Johnny Moore's Three Blazers
TTITLE12=Respect - BB Band
TTITLE13=Gimme Some Lovin' [Live] - Spencer Davis Group
TTITLE14=Season of the Witch - Donovan
TTITLE15=Who's Making Love - Commodores
TTITLE16=Turn on Your Lovelight - Righteous Brothers
TTITLE17=New Orleans - Kingsmen
TTITLE18=I Don't Know - Willie Mabon
TTITLE19=John the Revelator - Blind Willie Johnson
EXTD=
EXTT0=
EXTT1=
EXTT2=
EXTT3=
EXTT4=
EXTT5=
EXTT6=
EXTT7=
EXTT8=
EXTT9=
EXTT10=
EXTT11=
EXTT12=
EXTT13=
EXTT14=
EXTT15=
EXTT16=
EXTT17=
EXTT18=
EXTT19=
PLAYORDER=
